# xmcd
#
# Track frame offsets:
# 150
# 38155
# 57599
# 81607
# 106577
# 136998
# 169770
# 216838
# 236726
# 274045
#
# Disc length: 3927 seconds
#
# Revision: 1
# Processed by: cddbd v1.5.2PL0 Copyright (c) Steve Scherf et al.
# Submitted via: CedeCatalogueitor 2.6.0.6 http://personales.ya.com/cdcatalogueitor
#
DISCID=8e0f550a
DTITLE=Shawn Kellerman - Blues Without A Home
DYEAR=2009
DGENRE=
TTITLE0=Ted's Jam
TTITLE1=Good Times
TTITLE2=Counterfeit Man
TTITLE3=Give Me My Blues
TTITLE4=Love Is Sweet
TTITLE5=Love of Mine
TTITLE6=Big Mama's Door
TTITLE7=Pretty Woman
TTITLE8=Burrito Brain
TTITLE9=Jellyroll
EXTD=
EXTT0=
EXTT1=
EXTT2=
EXTT3=
EXTT4=
EXTT5=
EXTT6=
EXTT7=
EXTT8=
EXTT9=
PLAYORDER=
